<mxfile host="app.diagrams.net" agent="Mozilla/5.0 (Windows NT 10.0; Win64; x64) AppleWebKit/537.36 (KHTML, like Gecko) Chrome/131.0.0.0 Safari/537.36" version="25.0.3">
  <diagram id="C5RBs43oDa-KdzZeNtuy" name="Page-1">
    <mxGraphModel dx="1050" dy="557" grid="1" gridSize="10" guides="1" tooltips="1" connect="1" arrows="1" fold="1" page="1" pageScale="1" pageWidth="827" pageHeight="1169" math="0" shadow="0">
      <root>
        <mxCell id="WIyWlLk6GJQsqaUBKTNV-0" />
        <mxCell id="WIyWlLk6GJQsqaUBKTNV-1" parent="WIyWlLk6GJQsqaUBKTNV-0" />
        <mxCell id="jF080ErEWyn-nDqZA27T-2" value="" style="edgeStyle=orthogonalEdgeStyle;rounded=0;orthogonalLoop=1;jettySize=auto;html=1;" edge="1" parent="WIyWlLk6GJQsqaUBKTNV-1" source="jF080ErEWyn-nDqZA27T-0" target="jF080ErEWyn-nDqZA27T-1">
          <mxGeometry relative="1" as="geometry" />
        </mxCell>
        <mxCell id="jF080ErEWyn-nDqZA27T-0" value="Start" style="ellipse;whiteSpace=wrap;html=1;" vertex="1" parent="WIyWlLk6GJQsqaUBKTNV-1">
          <mxGeometry x="354" width="120" height="80" as="geometry" />
        </mxCell>
        <mxCell id="jF080ErEWyn-nDqZA27T-5" value="" style="edgeStyle=orthogonalEdgeStyle;rounded=0;orthogonalLoop=1;jettySize=auto;html=1;" edge="1" parent="WIyWlLk6GJQsqaUBKTNV-1" source="jF080ErEWyn-nDqZA27T-1" target="jF080ErEWyn-nDqZA27T-4">
          <mxGeometry relative="1" as="geometry" />
        </mxCell>
        <mxCell id="jF080ErEWyn-nDqZA27T-1" value="n,count=0,i=2" style="rounded=0;whiteSpace=wrap;html=1;" vertex="1" parent="WIyWlLk6GJQsqaUBKTNV-1">
          <mxGeometry x="354" y="120" width="120" height="60" as="geometry" />
        </mxCell>
        <mxCell id="jF080ErEWyn-nDqZA27T-11" value="TRUE" style="edgeStyle=orthogonalEdgeStyle;rounded=0;orthogonalLoop=1;jettySize=auto;html=1;" edge="1" parent="WIyWlLk6GJQsqaUBKTNV-1" source="jF080ErEWyn-nDqZA27T-3" target="jF080ErEWyn-nDqZA27T-9">
          <mxGeometry relative="1" as="geometry" />
        </mxCell>
        <mxCell id="jF080ErEWyn-nDqZA27T-3" value="i*i &amp;lt;= n" style="rhombus;whiteSpace=wrap;html=1;" vertex="1" parent="WIyWlLk6GJQsqaUBKTNV-1">
          <mxGeometry x="304" y="440" width="220" height="80" as="geometry" />
        </mxCell>
        <mxCell id="jF080ErEWyn-nDqZA27T-7" value="" style="edgeStyle=orthogonalEdgeStyle;rounded=0;orthogonalLoop=1;jettySize=auto;html=1;" edge="1" parent="WIyWlLk6GJQsqaUBKTNV-1" source="jF080ErEWyn-nDqZA27T-4" target="jF080ErEWyn-nDqZA27T-6">
          <mxGeometry relative="1" as="geometry" />
        </mxCell>
        <mxCell id="jF080ErEWyn-nDqZA27T-4" value="n" style="shape=parallelogram;perimeter=parallelogramPerimeter;whiteSpace=wrap;html=1;fixedSize=1;" vertex="1" parent="WIyWlLk6GJQsqaUBKTNV-1">
          <mxGeometry x="354" y="220" width="120" height="60" as="geometry" />
        </mxCell>
        <mxCell id="jF080ErEWyn-nDqZA27T-8" value="" style="edgeStyle=orthogonalEdgeStyle;rounded=0;orthogonalLoop=1;jettySize=auto;html=1;" edge="1" parent="WIyWlLk6GJQsqaUBKTNV-1" source="jF080ErEWyn-nDqZA27T-6" target="jF080ErEWyn-nDqZA27T-3">
          <mxGeometry relative="1" as="geometry" />
        </mxCell>
        <mxCell id="jF080ErEWyn-nDqZA27T-6" value="Start for" style="ellipse;whiteSpace=wrap;html=1;aspect=fixed;fillColor=#dae8fc;strokeColor=#6c8ebf;" vertex="1" parent="WIyWlLk6GJQsqaUBKTNV-1">
          <mxGeometry x="387" y="320" width="54" height="54" as="geometry" />
        </mxCell>
        <mxCell id="jF080ErEWyn-nDqZA27T-15" value="TRUE" style="edgeStyle=orthogonalEdgeStyle;rounded=0;orthogonalLoop=1;jettySize=auto;html=1;" edge="1" parent="WIyWlLk6GJQsqaUBKTNV-1" source="jF080ErEWyn-nDqZA27T-9" target="jF080ErEWyn-nDqZA27T-14">
          <mxGeometry relative="1" as="geometry" />
        </mxCell>
        <mxCell id="jF080ErEWyn-nDqZA27T-20" value="FALSE" style="edgeStyle=orthogonalEdgeStyle;rounded=0;orthogonalLoop=1;jettySize=auto;html=1;exitX=1;exitY=0.5;exitDx=0;exitDy=0;entryX=0;entryY=0.5;entryDx=0;entryDy=0;" edge="1" parent="WIyWlLk6GJQsqaUBKTNV-1" source="jF080ErEWyn-nDqZA27T-9" target="jF080ErEWyn-nDqZA27T-19">
          <mxGeometry relative="1" as="geometry" />
        </mxCell>
        <mxCell id="jF080ErEWyn-nDqZA27T-9" value="n % i == 0" style="rhombus;whiteSpace=wrap;html=1;" vertex="1" parent="WIyWlLk6GJQsqaUBKTNV-1">
          <mxGeometry x="349" y="560" width="130" height="80" as="geometry" />
        </mxCell>
        <mxCell id="jF080ErEWyn-nDqZA27T-18" value="" style="edgeStyle=orthogonalEdgeStyle;rounded=0;orthogonalLoop=1;jettySize=auto;html=1;" edge="1" parent="WIyWlLk6GJQsqaUBKTNV-1" source="jF080ErEWyn-nDqZA27T-14" target="jF080ErEWyn-nDqZA27T-17">
          <mxGeometry relative="1" as="geometry" />
        </mxCell>
        <mxCell id="jF080ErEWyn-nDqZA27T-14" value="count ++" style="rounded=0;whiteSpace=wrap;html=1;" vertex="1" parent="WIyWlLk6GJQsqaUBKTNV-1">
          <mxGeometry x="354" y="690" width="120" height="60" as="geometry" />
        </mxCell>
        <mxCell id="jF080ErEWyn-nDqZA27T-23" value="" style="edgeStyle=orthogonalEdgeStyle;rounded=0;orthogonalLoop=1;jettySize=auto;html=1;" edge="1" parent="WIyWlLk6GJQsqaUBKTNV-1" source="jF080ErEWyn-nDqZA27T-17" target="jF080ErEWyn-nDqZA27T-22">
          <mxGeometry relative="1" as="geometry" />
        </mxCell>
        <mxCell id="jF080ErEWyn-nDqZA27T-17" value="End for" style="ellipse;whiteSpace=wrap;html=1;aspect=fixed;fillColor=#dae8fc;strokeColor=#6c8ebf;" vertex="1" parent="WIyWlLk6GJQsqaUBKTNV-1">
          <mxGeometry x="394" y="790" width="40" height="40" as="geometry" />
        </mxCell>
        <mxCell id="jF080ErEWyn-nDqZA27T-21" style="edgeStyle=orthogonalEdgeStyle;rounded=0;orthogonalLoop=1;jettySize=auto;html=1;exitX=0.5;exitY=0;exitDx=0;exitDy=0;entryX=1;entryY=0.5;entryDx=0;entryDy=0;" edge="1" parent="WIyWlLk6GJQsqaUBKTNV-1" source="jF080ErEWyn-nDqZA27T-19" target="jF080ErEWyn-nDqZA27T-3">
          <mxGeometry relative="1" as="geometry" />
        </mxCell>
        <mxCell id="jF080ErEWyn-nDqZA27T-19" value="i++" style="rounded=0;whiteSpace=wrap;html=1;" vertex="1" parent="WIyWlLk6GJQsqaUBKTNV-1">
          <mxGeometry x="650" y="570" width="120" height="60" as="geometry" />
        </mxCell>
        <mxCell id="jF080ErEWyn-nDqZA27T-26" value="TRUE" style="edgeStyle=orthogonalEdgeStyle;rounded=0;orthogonalLoop=1;jettySize=auto;html=1;" edge="1" parent="WIyWlLk6GJQsqaUBKTNV-1" source="jF080ErEWyn-nDqZA27T-22" target="jF080ErEWyn-nDqZA27T-25">
          <mxGeometry relative="1" as="geometry" />
        </mxCell>
        <mxCell id="jF080ErEWyn-nDqZA27T-31" value="ELSE" style="edgeStyle=orthogonalEdgeStyle;rounded=0;orthogonalLoop=1;jettySize=auto;html=1;" edge="1" parent="WIyWlLk6GJQsqaUBKTNV-1" source="jF080ErEWyn-nDqZA27T-22" target="jF080ErEWyn-nDqZA27T-29">
          <mxGeometry relative="1" as="geometry" />
        </mxCell>
        <mxCell id="jF080ErEWyn-nDqZA27T-22" value="n &amp;lt; 2 || count &amp;gt; 0" style="rhombus;whiteSpace=wrap;html=1;" vertex="1" parent="WIyWlLk6GJQsqaUBKTNV-1">
          <mxGeometry x="309" y="860" width="210" height="80" as="geometry" />
        </mxCell>
        <mxCell id="jF080ErEWyn-nDqZA27T-28" value="" style="edgeStyle=orthogonalEdgeStyle;rounded=0;orthogonalLoop=1;jettySize=auto;html=1;" edge="1" parent="WIyWlLk6GJQsqaUBKTNV-1" source="jF080ErEWyn-nDqZA27T-25" target="jF080ErEWyn-nDqZA27T-27">
          <mxGeometry relative="1" as="geometry" />
        </mxCell>
        <mxCell id="jF080ErEWyn-nDqZA27T-25" value="Khong phai so nguyen to" style="shape=parallelogram;perimeter=parallelogramPerimeter;whiteSpace=wrap;html=1;fixedSize=1;" vertex="1" parent="WIyWlLk6GJQsqaUBKTNV-1">
          <mxGeometry x="354" y="990" width="120" height="60" as="geometry" />
        </mxCell>
        <mxCell id="jF080ErEWyn-nDqZA27T-27" value="End" style="ellipse;whiteSpace=wrap;html=1;" vertex="1" parent="WIyWlLk6GJQsqaUBKTNV-1">
          <mxGeometry x="354" y="1089" width="120" height="80" as="geometry" />
        </mxCell>
        <mxCell id="jF080ErEWyn-nDqZA27T-32" style="edgeStyle=orthogonalEdgeStyle;rounded=0;orthogonalLoop=1;jettySize=auto;html=1;exitX=0.5;exitY=1;exitDx=0;exitDy=0;entryX=1;entryY=0.5;entryDx=0;entryDy=0;" edge="1" parent="WIyWlLk6GJQsqaUBKTNV-1" source="jF080ErEWyn-nDqZA27T-29" target="jF080ErEWyn-nDqZA27T-27">
          <mxGeometry relative="1" as="geometry" />
        </mxCell>
        <mxCell id="jF080ErEWyn-nDqZA27T-29" value="Day la mot so nguyen to" style="shape=parallelogram;perimeter=parallelogramPerimeter;whiteSpace=wrap;html=1;fixedSize=1;" vertex="1" parent="WIyWlLk6GJQsqaUBKTNV-1">
          <mxGeometry x="630" y="870" width="170" height="60" as="geometry" />
        </mxCell>
      </root>
    </mxGraphModel>
  </diagram>
</mxfile>
